<svg xmlns="http://www.w3.org/2000/svg" width="24.299" height="18.225" viewBox="0 0 24.299 18.225">
  <path id="bar-chart_1_" data-name="bar-chart (1)" d="M18.832,77.668H19.9a.653.653,0,0,0,.607-.607V66.126a.653.653,0,0,0-.607-.607H18.832a.653.653,0,0,0-.607.607V77.061A.653.653,0,0,0,18.832,77.668Zm-9.112,0h1.063a.653.653,0,0,0,.607-.607V67.645a.653.653,0,0,0-.607-.607H9.72a.653.653,0,0,0-.607.607v9.416A.653.653,0,0,0,9.72,77.668Zm4.556,0h1.063a.653.653,0,0,0,.607-.607V70.682a.653.653,0,0,0-.607-.607H14.276a.653.653,0,0,0-.607.607v6.379A.653.653,0,0,0,14.276,77.668Zm9.264,2.278H2.278V64.759A.759.759,0,0,0,1.519,64H.759A.759.759,0,0,0,0,64.759V80.706a1.519,1.519,0,0,0,1.519,1.519H23.54a.759.759,0,0,0,.759-.759v-.759A.759.759,0,0,0,23.54,79.946ZM5.164,77.668H6.227a.653.653,0,0,0,.607-.607V73.72a.653.653,0,0,0-.607-.607H5.164a.653.653,0,0,0-.607.607v3.341a.653.653,0,0,0,.607.607Z" transform="translate(0 -64)" fill="#cbcbcb"/>
</svg>
