<svg xmlns="http://www.w3.org/2000/svg" width="19.019" height="14.264" viewBox="0 0 19.019 14.264">
  <g id="card-list-svgrepo-com" transform="translate(0 -2)">
    <path id="Path_130551" data-name="Path 130551" d="M17.236,3.189a.594.594,0,0,1,.594.594v10.7a.594.594,0,0,1-.594.594H1.783a.594.594,0,0,1-.594-.594V3.783a.594.594,0,0,1,.594-.594ZM1.783,2A1.783,1.783,0,0,0,0,3.783v10.7a1.783,1.783,0,0,0,1.783,1.783H17.236a1.783,1.783,0,0,0,1.783-1.783V3.783A1.783,1.783,0,0,0,17.236,2Z" fill="#fff"/>
    <path id="Path_130552" data-name="Path 130552" d="M5.377,8.566a.594.594,0,0,1,.594-.594h8.321a.594.594,0,0,1,0,1.189H5.972A.594.594,0,0,1,5.377,8.566Zm0-2.972A.594.594,0,0,1,5.972,5h8.321a.594.594,0,0,1,0,1.189H5.972A.594.594,0,0,1,5.377,5.594Zm0,5.943a.594.594,0,0,1,.594-.594h8.321a.594.594,0,0,1,0,1.189H5.972A.594.594,0,0,1,5.377,11.538ZM4.189,5.594A.594.594,0,1,1,3.594,5,.594.594,0,0,1,4.189,5.594Zm0,2.972a.594.594,0,1,1-.594-.594A.594.594,0,0,1,4.189,8.566Zm0,2.972a.594.594,0,1,1-.594-.594A.594.594,0,0,1,4.189,11.538Z" transform="translate(0.566 0.566)" fill="#fff"/>
  </g>
</svg>
