<svg xmlns="http://www.w3.org/2000/svg" width="19.655" height="16.926" viewBox="0 0 19.655 16.926">
  <g id="import-icon" transform="translate(-2.858)">
    <path id="Path_130550" data-name="Path 130550" d="M9.319,8.061V.6a.557.557,0,0,1,.5-.6.557.557,0,0,1,.5.6V8.061l2.321-2.429a.448.448,0,0,1,.708.052.675.675,0,0,1-.043.841l-3.157,3.3a.444.444,0,0,1-.669,0l-3.154-3.3a.675.675,0,0,1-.043-.841A.451.451,0,0,1,7,5.632L9.319,8.061ZM.011,9.085A.647.647,0,0,1,.4,8.323a.53.53,0,0,1,.637.465c.165.816.281,1.519.389,2.165.507,3.063.779,4.706,4.342,4.706h8.4c3.33,0,3.6-1.737,4.049-4.615.107-.69.224-1.437.39-2.257a.53.53,0,0,1,.637-.465.648.648,0,0,1,.389.762c-.157.77-.272,1.509-.377,2.193-.55,3.521-.881,5.647-5.086,5.647H5.766c-4.43,0-4.761-2-5.378-5.729C.27,10.491.154,9.785.011,9.085Z" transform="translate(2.862)"/>
  </g>
</svg>
