<svg xmlns="http://www.w3.org/2000/svg" width="131.756" height="128.251" viewBox="0 0 131.756 128.251">
  <g id="no_found" transform="translate(0.798)">
    <path id="Path_526" data-name="Path 526" d="M128.79,85.373,119.647,80.1A53.75,53.75,0,0,0,41.69,20.033l-13.331-7.7A3.739,3.739,0,1,0,24.62,18.8L34.7,24.621c7.341,4.554,2.354,12.465-6.644,7.129L4.6,18.759a3.084,3.084,0,1,0-3.084,5.336L23.26,36.661c8.42,4.826,4.121,14.011-4.588,8.029l-1.224-.705a3.747,3.747,0,0,0-5.1,1.368h0a3.747,3.747,0,0,0,1.368,5.1L16,51.76c8.055,3.526,4.588,10.2-1.376,5.71l-2.49-1.444A3.025,3.025,0,0,0,9.1,61.242l4.733,2.736c-.068,1.054-.1,2.116-.1,3.178A53.751,53.751,0,0,0,47.4,117.016H87.547a53.988,53.988,0,0,0,17.622-11.556l14.206,8.2a4.5,4.5,0,0,0,4.5-7.791L111.133,98.5c-6.627-2.693-2.362-13.595,5.574-9.754l7.6,4.384a4.5,4.5,0,1,0,4.495-7.791Z" transform="translate(-0.099 -1.705)" fill="#e8e8e8"/>
    <rect id="Rectangle_1071" data-name="Rectangle 1071" width="6.814" height="10.816" rx="3.407" transform="translate(-0.798 39.418) rotate(-57.68)" fill="#e8e8e8"/>
    <path id="Path_527" data-name="Path 527" d="M119.534,59.5a3.994,3.994,0,0,0,.229-1.283,3.9,3.9,0,0,0-5.667-3.492,5.1,5.1,0,1,0-9.78,2.549h-.357a4.444,4.444,0,1,0,0,8.879,4.163,4.163,0,0,0,.569-.059h14.156a3.152,3.152,0,0,0,.569.059,3.322,3.322,0,0,0,.28-6.636Z" transform="translate(-15.051 -7.494)" fill="#fff" stroke="#d6d6d6" stroke-width="0.75"/>
    <rect id="Rectangle_1072" data-name="Rectangle 1072" width="48.032" height="60.59" rx="4.06" transform="translate(44.012 34.251)" fill="#fff" stroke="#b3b3b3" stroke-width="1.2"/>
    <line id="Line_13" data-name="Line 13" x2="32.95" transform="translate(51.549 44.413)" fill="none" stroke="#d6d6d6" stroke-linecap="round" stroke-linejoin="round" stroke-width="1"/>
    <line id="Line_14" data-name="Line 14" x2="32.95" transform="translate(51.549 51.227)" fill="none" stroke="#d6d6d6" stroke-linecap="round" stroke-linejoin="round" stroke-width="1"/>
    <line id="Line_15" data-name="Line 15" x2="32.95" transform="translate(51.549 58.042)" fill="none" stroke="#d6d6d6" stroke-linecap="round" stroke-linejoin="round" stroke-width="1"/>
    <line id="Line_16" data-name="Line 16" x2="32.95" transform="translate(51.549 64.856)" fill="none" stroke="#d6d6d6" stroke-linecap="round" stroke-linejoin="round" stroke-width="1"/>
    <line id="Line_17" data-name="Line 17" x2="17.214" transform="translate(51.549 71.679)" fill="none" stroke="#d6d6d6" stroke-linecap="round" stroke-linejoin="round" stroke-width="1"/>
    <path id="Path_528" data-name="Path 528" d="M106.891,106.6,98.572,98.3a11.573,11.573,0,1,0-1.7,1.7l8.318,8.293a1.215,1.215,0,1,0,1.7-1.7Zm-17.3-6.407a9.1,9.1,0,1,0-.017,0Z" transform="translate(-9.847 -9.882)" fill="#b3b4b4"/>
    <path id="Path_529" data-name="Path 529" d="M55.924,104.22a3.815,3.815,0,0,0,.238-1.283,3.891,3.891,0,0,0-5.676-3.492,5.1,5.1,0,0,0-10.137.7A5.217,5.217,0,0,0,40.707,102H40.35a4.444,4.444,0,1,0,.578,8.828H55.083a3.152,3.152,0,0,0,.569.059,3.322,3.322,0,0,0,.272-6.636Z" transform="translate(-5.497 -14.239)" fill="#fff" stroke="#d6d6d6" stroke-width="0.75"/>
    <line id="Line_18" data-name="Line 18" x2="72.553" transform="translate(25.056 116.015)" fill="none" stroke="#b3b4b4" stroke-linecap="round" stroke-linejoin="round" stroke-width="1"/>
    <line id="Line_19" data-name="Line 19" x2="9.542" transform="translate(102.877 116.015)" fill="none" stroke="#b3b4b4" stroke-linecap="round" stroke-linejoin="round" stroke-width="1"/>
    <line id="Line_20" data-name="Line 20" x2="41.736" transform="translate(30.757 122.506)" fill="none" stroke="#b3b4b4" stroke-linecap="round" stroke-linejoin="round" stroke-width="0.75"/>
    <line id="Line_21" data-name="Line 21" x2="17.945" transform="translate(89.028 122.506)" fill="none" stroke="#b3b4b4" stroke-linecap="round" stroke-linejoin="round" stroke-width="0.75"/>
    <line id="Line_22" data-name="Line 22" x2="45.559" transform="translate(56.63 127.851)" fill="none" stroke="#cccccb" stroke-linecap="round" stroke-linejoin="round" stroke-width="0.8"/>
    <line id="Line_23" data-name="Line 23" x2="12.371" transform="translate(38.073 127.851)" fill="none" stroke="#cccccb" stroke-linecap="round" stroke-linejoin="round" stroke-width="0.8"/>
    <line id="Line_24" data-name="Line 24" x2="7.256" transform="translate(76.877 122.506)" fill="none" stroke="#b3b4b4" stroke-linecap="round" stroke-linejoin="round" stroke-width="0.75"/>
    <circle id="Ellipse_1" data-name="Ellipse 1" cx="2.396" cy="2.396" r="2.396" transform="translate(59.62 0.4)" fill="none" stroke="#dfdfdf" stroke-linecap="round" stroke-linejoin="round" stroke-width="0.8"/>
    <circle id="Ellipse_2" data-name="Ellipse 2" cx="2.396" cy="2.396" r="2.396" transform="translate(51.752 23.672)" fill="none" stroke="#fff" stroke-linecap="round" stroke-linejoin="round" stroke-width="0.8"/>
    <circle id="Ellipse_3" data-name="Ellipse 3" cx="2.396" cy="2.396" r="2.396" transform="translate(123.737 46.155)" fill="none" stroke="#dfdfdf" stroke-linecap="round" stroke-linejoin="round" stroke-width="0.8"/>
    <circle id="Ellipse_4" data-name="Ellipse 4" cx="2.396" cy="2.396" r="2.396" transform="translate(4.944 67.889)" fill="none" stroke="#dfdfdf" stroke-linecap="round" stroke-linejoin="round" stroke-width="0.8"/>
    <circle id="Ellipse_5" data-name="Ellipse 5" cx="1.674" cy="1.674" r="1.674" transform="translate(123.966 71.237)" fill="none" stroke="#dfdfdf" stroke-linecap="round" stroke-linejoin="round" stroke-width="0.8"/>
    <circle id="Ellipse_6" data-name="Ellipse 6" cx="1.674" cy="1.674" r="1.674" transform="translate(80.276 103.813)" fill="none" stroke="#fff" stroke-linecap="round" stroke-linejoin="round" stroke-width="0.8"/>
    <line id="Line_25" data-name="Line 25" y2="5.268" transform="translate(92.52 5.676)" fill="none" stroke="#dfdfdf" stroke-linecap="round" stroke-linejoin="round" stroke-width="1"/>
    <line id="Line_26" data-name="Line 26" x2="5.268" transform="translate(89.886 8.31)" fill="none" stroke="#dfdfdf" stroke-linecap="round" stroke-linejoin="round" stroke-width="1"/>
    <line id="Line_27" data-name="Line 27" y2="4.308" transform="translate(29.958 64.788)" fill="none" stroke="#fff" stroke-linecap="round" stroke-linejoin="round" stroke-width="1"/>
    <line id="Line_28" data-name="Line 28" x2="4.308" transform="translate(27.809 66.946)" fill="none" stroke="#fff" stroke-linecap="round" stroke-linejoin="round" stroke-width="1"/>
    <line id="Line_29" data-name="Line 29" y2="4.784" transform="translate(14.435 92.045)" fill="none" stroke="#dfdfdf" stroke-linecap="round" stroke-linejoin="round" stroke-width="1"/>
    <line id="Line_30" data-name="Line 30" x2="4.784" transform="translate(12.039 94.433)" fill="none" stroke="#dfdfdf" stroke-linecap="round" stroke-linejoin="round" stroke-width="1"/>
  </g>
</svg>
